<svg width="208" height="128" viewBox="0 0 208 128" fill="none" xmlns="http://www.w3.org/2000/svg">
<g filter="url(#filter0_d)">
<path d="M26.3145 14.6777H18.4746V36H13.2012V14.6777H5.4668V10.4062H26.3145V14.6777ZM48.728 36H43.4545V25.0312H33.1713V36H27.8979V10.4062H33.1713V20.7773H43.4545V10.4062H48.728V36ZM67.3095 24.9082H57.1845V31.7637H69.0673V36H51.911V10.4062H69.0321V14.6777H57.1845V20.7773H67.3095V24.9082ZM68.9727 109H54.3242V78.5312H25.7598V109H11.1113V37.9062H25.7598V66.7148H54.3242V37.9062H68.9727V109ZM126.623 37.9062V84.7324C126.623 92.5124 124.182 98.6647 119.299 103.189C114.449 107.714 107.808 109.977 99.377 109.977C91.0762 109.977 84.4844 107.779 79.6016 103.385C74.7188 98.9902 72.2285 92.9518 72.1309 85.2695V37.9062H86.7793V84.8301C86.7793 89.485 87.8861 92.8867 90.0996 95.0352C92.3457 97.151 95.4382 98.209 99.377 98.209C107.613 98.209 111.796 93.8796 111.926 85.2207V37.9062H126.623ZM129.635 109V37.9062H154.537C163.163 37.9062 169.706 39.5664 174.166 42.8867C178.626 46.1745 180.855 51.0085 180.855 57.3887C180.855 60.8717 179.96 63.9479 178.17 66.6172C176.38 69.2539 173.889 71.1908 170.699 72.4277C174.345 73.3392 177.21 75.1784 179.293 77.9453C181.409 80.7122 182.467 84.0977 182.467 88.1016C182.467 94.9375 180.286 100.113 175.924 103.629C171.562 107.145 165.344 108.935 157.271 109H129.635ZM144.283 78.043V97.2324H156.832C160.283 97.2324 162.968 96.4186 164.889 94.791C166.842 93.1309 167.818 90.8522 167.818 87.9551C167.818 81.4447 164.449 78.1406 157.711 78.043H144.283ZM144.283 67.6914H155.123C162.512 67.5612 166.207 64.6152 166.207 58.8535C166.207 55.6309 165.263 53.3197 163.375 51.9199C161.52 50.4876 158.574 49.7715 154.537 49.7715H144.283V67.6914Z" fill="#F50A0A"/>
</g>
<defs>
<filter id="filter0_d" x="-4" y="-6" width="231" height="147" filterUnits="userSpaceOnUse" color-interpolation-filters="sRGB">
<feFlood flood-opacity="0" result="BackgroundImageFix"/>
<feColorMatrix in="SourceAlpha" type="matrix" values="0 0 0 0 0 0 0 0 0 0 0 0 0 0 0 0 0 0 127 0"/>
<feOffset dx="7" dy="6"/>
<feGaussianBlur stdDeviation="6"/>
<feColorMatrix type="matrix" values="0 0 0 0 0.0666667 0 0 0 0 0.0630556 0 0 0 0 0.0630556 0 0 0 0.9 0"/>
<feBlend mode="normal" in2="BackgroundImageFix" result="effect1_dropShadow"/>
<feBlend mode="normal" in="SourceGraphic" in2="effect1_dropShadow" result="shape"/>
</filter>
</defs>
</svg>
